# xmcd
#
# Track frame offsets:
#	151
#	15292
#	31737
#	47356
#	65865
#	80018
#	96715
#	112812
#	130881
#	149564
#	164851
#	181384
#	196959
#	215604
#	229879
#	246744
#	262625
#	280560
#
# Disc length: 3989 seconds
#
# Revision: 1
# Processed by: cddbd v1.5.2PL0 Copyright (c) Steve Scherf et al.
# Submitted via: audiograbber 1.83.01
#
DISCID=080f9312
DTITLE=Olivia Newton-John - PSCD1373
DYEAR=1900
DGENRE=pop
TTITLE0=Have You Never Been Mellow complete version
TTITLE1=I honestly Love You complete version
TTITLE2=Please, Mister, Please complete version
TTITLE3=Physical complete version
TTITLE4=Heart Attack complete version
TTITLE5=Sam complete version
TTITLE6=Xanadu complete version
TTITLE7=Suddenly complete version
TTITLE8=I Honestly Love You (new version) complete version
TTITLE9=Have You Never Been Mellow  karaoke version
TTITLE10=I honestly Love You  karaoke version
TTITLE11=Please, Mister, Please  karaoke version
TTITLE12=Physical  karaoke version
TTITLE13=Heart Attack  karaoke version
TTITLE14=Sam  karaoke version
TTITLE15=Xanadu  karaoke version
TTITLE16=Suddenly  karaoke version
TTITLE17=I Honestly Love You (new version) karaoke version
EXTD=
EXTT0=
EXTT1=
EXTT2=
EXTT3=
EXTT4=
EXTT5=
EXTT6=
EXTT7=
EXTT8=
EXTT9=
EXTT10=
EXTT11=
EXTT12=
EXTT13=
EXTT14=
EXTT15=
EXTT16=
EXTT17=
PLAYORDER=
